<svg height="500" viewBox="0 0 132.29166 132.29167" width="500" xmlns="http://www.w3.org/2000/svg"><circle cx="66.055923" cy="66.23484" fill="#eed446" r="66.145836" stroke-width=".264583"/><path d="m0 0h132.29167v132.29167h-132.29167z" fill="#eed446"/><rect fill="#080701" height="46.342766" ry="4.77261" width="46.342766" x="31.744009" y="20.601171"/><path d="m50.490686 31.335422c3.027532.963233 8.577977 2.247643 11.722141 5.903618 3.144164 3.655976 3.882148 9.682895 4.97752 12.333336s2.547979 1.924138 2.757184-.798223-.824997-7.440735-2.881914-11.119907c-2.056918-3.679173-5.136326-6.318666-8.489866-7.894366-3.35354-1.575699-6.980669-2.087279-9.046731-2.021962-2.066063.06532-2.570639.707509-2.57054 1.349795.0001.642285.504674 1.284476 3.532206 2.247709z" fill="#eed446"/><path d="m45.988677 54.681527c-3.475489 2.815607-4.41402 3.020909-5.073915 3.094247-.659895.07334-1.041159.01468-1.305168-.234584-.264009-.249265-.41064-.689158-.190687-1.422463.219953-.733306.806503-1.759767 3.809051-4.620041 3.002549-2.860275 8.4207-7.553964 11.720311-10.413627 3.29961-2.859664 4.480306-3.884976 4.850725-4.764205.37042-.879228-.06951-1.612437.15049-1.685781.219996-.07334 1.099746.513156 1.979625 1.099742.481668.321113.963437.642293 1.284525.963424.321087.32113.48164.642234.900735 1.288247.419094.646014 1.096661 1.61686.995533 1.882313-.101127.265453-.980961-.174464-1.714271-.101164-.733311.0733-1.319863.659852-4.619475 3.666167-3.299613 3.006314-9.311989 8.432119-12.787479 11.247725z" fill="#eed446"/><text fill="#080701" font-family="Liberation Sans" font-size="47.5416" font-weight="bold" stroke-width="1.18853" transform="matrix(.93382434 -.00012885 .00011236 1.0708652 0 0)" x="48.585495" y="102.44697"><tspan fill="#080701" font-family="Liberation Sans" font-weight="bold" stroke-width="1.18853" x="48.585495" y="102.44697">CB</tspan></text></svg>